<svg xmlns="http://www.w3.org/2000/svg" viewBox="0 0 1595.7 467.83"><defs><style>.cls-1{fill:#fff;}</style></defs><g id="Layer_2" data-name="Layer 2"><g id="Layer_1-2" data-name="Layer 1"><path class="cls-1" d="M230.18,0,0,227.51v236.6L224.75,300.7,459,467.83v-239Zm4.62,147.55,174.48,74.54H234.8Zm0-15.76v-106L419.89,210.87Zm-14.48-6.19L153.35,97l67-66.2Zm0,15.76v80.73H26.77L142.22,108Zm-9.38,95.22L15,425.48V236.58ZM219,249l-2.31,39.12L60.92,401.32Zm14.68-2.79L397.73,405.72,231.26,287Zm10.94-9.58H444.05v194Z"/><path class="cls-1" d="M761.85,291.15l-93.19,0h-14l0,75h14l107.22,0v-14l-107.21,0V335.61l93.19,0h14V291.15h-14Zm0,30.47-93.2,0V305.13l93.19,0Z"/><polygon class="cls-1" points="797.59 291.16 790.59 291.16 790.56 366.13 804.57 366.14 804.6 305.18 911.8 305.21 911.81 291.21 804.61 291.17 797.59 291.16"/><path class="cls-1" d="M1581.67,335.08h14v-44.5h-14l-93.19,0h-14l0,75h14l107.21,0v-14l-107.2,0V335Zm-93.18-30.52,93.19,0v16.47l-93.19,0Z"/><polygon class="cls-1" points="1445.06 290.53 1351.86 290.49 1344.85 290.49 1337.85 290.49 1337.82 365.47 1351.83 365.47 1351.85 304.5 1445.05 304.55 1445.03 365.51 1459.04 365.51 1459.07 290.53 1447.5 290.53 1445.06 290.53"/><polyline class="cls-1" points="1215.9 328.4 1215.92 290.43 1201.91 290.43 1201.88 365.42 1208.89 365.41 1215.89 365.42 1309.09 365.45 1309.08 382.63 1201.87 382.58 1201.86 396.6 1309.08 396.63 1323.09 396.64 1323.09 382.63 1323.13 290.48 1309.11 290.48 1309.09 351.45 1215.89 351.41 1215.9 328.4"/><path class="cls-1" d="M1171.77,290.43l-93.19,0h-14l0,75h14l93.19,0h14l0-104.41h-14Zm0,61-93.19,0,0-47,93.19,0Z"/><path class="cls-1" d="M1034.44,291.25l-93.2,0h-14l0,75h14l93.2,0h14l0-75h-14Zm0,61-93.19,0V305.23l93.2,0Z"/><path class="cls-1" d="M624.52,291.1l-107.21-.05v14l107.21,0v16.47l-93.19,0h-14l0,44.49h14l93.19,0h14l0-75h-14Zm0,61-93.19,0V335.56l93.2,0Z"/></g></g></svg>